<svg width="33" height="32" viewBox="0 0 33 32" fill="none" xmlns="http://www.w3.org/2000/svg">
<path d="M14.2086 2.44313C14.8522 0.462315 17.6545 0.462316 18.2981 2.44313L20.5977 9.5205C20.8855 10.4063 21.7111 11.0061 22.6425 11.0061H30.0841C32.1668 11.0061 33.0328 13.6713 31.3478 14.8955L25.3274 19.2695C24.5739 19.817 24.2586 20.7875 24.5464 21.6733L26.846 28.7507C27.4896 30.7315 25.2225 32.3787 23.5375 31.1545L17.5171 26.7804C16.7636 26.2329 15.7432 26.2329 14.9896 26.7804L8.96927 31.1545C7.28428 32.3787 5.01715 30.7315 5.66076 28.7507L7.96033 21.6733C8.24816 20.7875 7.93285 19.817 7.1793 19.2695L1.15894 14.8955C-0.526047 13.6713 0.339921 11.0061 2.42268 11.0061H9.86426C10.7957 11.0061 11.6212 10.4063 11.909 9.5205L14.2086 2.44313Z" fill="#C1CCE0"/>
</svg>
