<svg width="33" height="32" viewBox="0 0 33 32" fill="none" xmlns="http://www.w3.org/2000/svg">
<path d="M14.7037 2.44313C15.3473 0.462315 18.1497 0.462316 18.7933 2.44313L21.0928 9.5205C21.3807 10.4063 22.2062 11.0061 23.1376 11.0061H30.5792C32.6619 11.0061 33.5279 13.6713 31.8429 14.8955L25.8226 19.2695C25.069 19.817 24.7537 20.7875 25.0415 21.6733L27.3411 28.7507C27.9847 30.7315 25.7176 32.3787 24.0326 31.1545L18.0122 26.7804C17.2587 26.2329 16.2383 26.2329 15.4848 26.7804L9.46439 31.1545C7.7794 32.3787 5.51227 30.7315 6.15588 28.7507L8.45545 21.6733C8.74328 20.7875 8.42797 19.817 7.67442 19.2695L1.65405 14.8955C-0.0309297 13.6713 0.835038 11.0061 2.91779 11.0061H10.3594C11.2908 11.0061 12.1163 10.4063 12.4041 9.5205L14.7037 2.44313Z" fill="#FBCA05"/>
</svg>
