<svg width="202" height="160" viewBox="0 0 202 160" fill="none" xmlns="http://www.w3.org/2000/svg">
<path d="M100.43 160C155.896 160 200.86 156.055 200.86 151.187C200.86 146.32 155.896 142.374 100.43 142.374C44.964 142.374 0 146.32 0 151.187C0 156.055 44.964 160 100.43 160Z" fill="#EDF0FC"/>
<path d="M170.544 147.184C170.544 147.184 155.621 116.891 201.144 103.685C201.144 103.685 204.315 149.592 170.544 147.184Z" fill="#EB725F"/>
<mask id="mask0_342_1163" style="mask-type:luminance" maskUnits="userSpaceOnUse" x="168" y="103" width="34" height="45">
<path d="M170.546 147.185C170.546 147.185 155.623 116.891 201.146 103.686C201.146 103.686 204.317 149.592 170.546 147.185Z" fill="white"/>
</mask>
<g mask="url(#mask0_342_1163)">
<path d="M207.25 110.737L206.989 110.301C197.99 115.657 189.799 117.538 187.379 118.007C189.633 115.344 191.856 112.905 193.868 110.792C194.772 110.624 200.975 109.336 207.271 104.644L206.967 104.237C201.666 108.187 196.451 109.684 194.492 110.139C198.864 105.594 202.095 102.714 202.191 102.629L201.853 102.249C201.755 102.335 198.454 105.278 194.005 109.914C194.435 104.144 197.267 98.4926 197.297 98.4343L196.842 98.2051C196.811 98.2663 193.732 104.404 193.46 110.485C191.443 112.606 189.215 115.053 186.957 117.724C187.119 110.173 190.352 101.325 190.386 101.234L189.908 101.058C189.873 101.153 186.43 110.57 186.44 118.34C184.262 120.943 182.071 123.746 180.023 126.659C179.625 115.782 182.84 104.563 182.873 104.448L182.384 104.307C182.349 104.424 178.977 116.183 179.541 127.35C178.027 129.544 176.599 131.795 175.328 134.065C173.076 122.372 175.979 111.758 176.009 111.65L175.519 111.513C175.488 111.624 172.449 122.712 174.946 134.763C173.7 137.052 172.62 139.355 171.773 141.636C168.892 133.458 168.332 121.745 168.457 121.069L167.955 120.977C167.821 121.71 168.34 133.929 171.502 142.387C170.729 144.599 170.18 146.785 169.925 148.91L170.431 148.971C170.677 146.919 171.202 144.808 171.939 142.671C172.533 142.795 174.248 143.087 177.197 143.087C177.429 143.087 177.671 143.086 177.92 143.082C181.728 143.023 188.154 142.442 197.138 140.014L197.004 139.524C181.684 143.664 173.644 142.483 172.108 142.185C172.96 139.817 174.074 137.42 175.368 135.04C175.778 135.08 176.845 135.166 178.401 135.166C183.298 135.166 192.923 134.298 201.294 128.341L200.998 127.927C190.499 135.399 177.996 134.754 175.635 134.554C176.935 132.207 178.405 129.879 179.973 127.612C181.543 127.452 195.529 125.85 204.845 118.587L204.532 118.188C195.906 124.912 183.198 126.727 180.358 127.058C182.431 124.102 184.655 121.256 186.866 118.618C188.065 118.416 197.16 116.742 207.25 110.737Z" fill="#F9AB43"/>
</g>
<path opacity="0.1" d="M201.144 103.685C198.451 104.466 195.977 105.309 193.691 106.2C194.676 109.149 195.216 112.336 195.216 115.662C195.216 130.777 184.108 143.029 170.405 143.029C169.969 143.029 169.535 143.016 169.104 142.991C169.763 145.595 170.544 147.184 170.544 147.184C204.315 149.592 201.144 103.685 201.144 103.685Z" fill="#0046A0"/>
<path d="M35.191 143.983C35.191 143.983 8.75006 150.288 6.44043 112.288C6.44043 112.288 43.0639 117.961 35.191 143.983Z" fill="#F9AB43"/>
<mask id="mask1_342_1163" style="mask-type:luminance" maskUnits="userSpaceOnUse" x="6" y="112" width="31" height="33">
<path d="M35.19 143.983C35.19 143.983 8.74908 150.288 6.43945 112.288C6.43945 112.289 43.0629 117.961 35.19 143.983Z" fill="white"/>
</mask>
<g mask="url(#mask1_342_1163)">
<path d="M13.0614 108.76L12.6724 108.887C15.2863 116.887 15.3122 123.636 15.2524 125.615C13.56 123.376 12.0374 121.202 10.7341 119.251C10.7618 118.513 10.8494 113.426 8.2785 107.66L7.90528 107.826C10.0685 112.679 10.3211 117.03 10.3317 118.645C7.53589 114.414 5.84589 111.372 5.79565 111.28L5.43727 111.478C5.48799 111.57 7.21483 114.678 10.069 118.986C5.61287 117.625 1.67449 114.402 1.63382 114.369L1.37305 114.684C1.41563 114.72 5.69182 118.222 10.4202 119.515C11.7293 121.472 13.2571 123.652 14.9552 125.895C9.05172 124.426 2.67452 120.322 2.60849 120.28L2.38599 120.622C2.45394 120.667 9.24216 125.037 15.3471 126.409C17.0065 128.577 18.8204 130.792 20.7463 132.913C12.1312 131.292 3.88699 126.781 3.80278 126.735L3.60516 127.093C3.69129 127.141 12.3308 131.871 21.2028 133.413C22.6578 134.99 24.1732 136.507 25.7316 137.906C16.1466 137.593 8.323 133.433 8.24357 133.39L8.0493 133.75C8.13112 133.794 16.3026 138.144 26.2115 138.329C27.7886 139.712 29.4068 140.966 31.049 142.036C24.1139 142.839 14.8136 141.196 14.3045 140.979L14.1437 141.355C14.6949 141.591 24.3861 143.355 31.5901 142.381C33.1907 143.38 34.8113 144.198 36.4352 144.775L36.5721 144.39C35.0041 143.833 33.4385 143.047 31.8911 142.089C32.0935 141.646 32.627 140.355 33.149 138.046C33.1902 137.863 33.2318 137.674 33.2729 137.479C33.9007 134.486 34.5826 129.35 34.2672 121.882L33.8586 121.899C34.3969 134.634 32.0452 140.721 31.5389 141.872C29.8298 140.784 28.1446 139.485 26.5029 138.049C26.6067 137.735 26.8642 136.915 27.1398 135.696C28.0073 131.86 29.0303 124.167 25.8335 116.553L25.4565 116.711C29.4661 126.262 26.7445 135.939 26.1694 137.753C24.5564 136.318 22.988 134.753 21.4841 133.123C21.6372 131.864 22.8559 120.626 18.8013 112.038L18.4319 112.213C22.1856 120.164 21.3607 130.44 21.1181 132.723C19.1625 130.574 17.3218 128.326 15.6399 126.126C15.695 125.15 15.9921 117.729 13.0614 108.76Z" fill="#EB725F"/>
</g>
<path opacity="0.1" d="M6.44043 112.289C6.5768 114.537 6.80073 116.625 7.09595 118.573C9.58741 118.325 12.1865 118.469 14.7995 119.06C26.6726 121.745 34.3297 132.622 31.9024 143.355C31.8248 143.696 31.7378 144.034 31.6421 144.367C33.8048 144.313 35.191 143.984 35.191 143.984C43.0639 117.961 6.44043 112.289 6.44043 112.289Z" fill="#0046A0"/>
<path d="M175.946 127.129C175.946 129.234 174.223 130.957 172.118 130.957H28.7439C26.6386 130.957 24.916 129.234 24.916 127.129V40.7326C24.916 38.6273 26.6386 36.9048 28.7439 36.9048H172.118C174.223 36.9048 175.946 38.6273 175.946 40.7326V127.129Z" fill="#6E7FDD"/>
<path d="M171.684 41.5171H29.1797V126.343H171.684V41.5171Z" fill="#D0DBF7"/>
<path d="M123.877 130.957H76.9844V142.7H123.877V130.957Z" fill="#8397ED"/>
<path d="M146.32 149.443C137.744 142.519 120.414 137.786 100.43 137.786C80.4465 137.786 63.1168 142.519 54.541 149.443H146.32Z" fill="#6E7FDD"/>
<path d="M54.5403 150.639C55.3599 150.639 56.1796 150.639 56.9992 150.639C59.2294 150.639 61.4601 150.639 63.6903 150.639C66.9722 150.639 70.2541 150.639 73.536 150.639C77.5572 150.639 81.5784 150.639 85.5995 150.639C90.0044 150.639 94.4098 150.639 98.8147 150.639C103.242 150.639 107.669 150.639 112.095 150.639C116.242 150.639 120.389 150.639 124.535 150.639C128.039 150.639 131.543 150.639 135.047 150.639C137.556 150.639 140.066 150.639 142.575 150.639C143.77 150.639 144.969 150.668 146.164 150.639C146.215 150.638 146.267 150.639 146.318 150.639C147.858 150.639 147.861 148.247 146.318 148.247C145.499 148.247 144.679 148.247 143.859 148.247C141.629 148.247 139.399 148.247 137.168 148.247C133.886 148.247 130.605 148.247 127.323 148.247C123.301 148.247 119.28 148.247 115.259 148.247C110.854 148.247 106.449 148.247 102.044 148.247C97.6171 148.247 93.1901 148.247 88.7632 148.247C84.6167 148.247 80.4697 148.247 76.3232 148.247C72.8193 148.247 69.3158 148.247 65.8119 148.247C63.3023 148.247 60.7926 148.247 58.2835 148.247C57.0887 148.247 55.8896 148.218 54.6948 148.247C54.6432 148.248 54.5915 148.247 54.5403 148.247C53.001 148.247 52.9982 150.639 54.5403 150.639Z" fill="#8397ED"/>
<path d="M163.897 47.4189H36.96V120.81H163.897V47.4189Z" fill="white"/>
<path d="M163.897 47.4189H36.96V54.4909H163.897V47.4189Z" fill="#E2E6FF"/>
<path d="M43.13 51.1177C43.13 52.0115 42.4056 52.736 41.5118 52.736C40.618 52.736 39.8936 52.0115 39.8936 51.1177C39.8936 50.2239 40.618 49.4995 41.5118 49.4995C42.4051 49.4995 43.13 50.2239 43.13 51.1177Z" fill="#EB725F"/>
<path d="M48.5792 51.1177C48.5792 52.0115 47.8548 52.736 46.961 52.736C46.0672 52.736 45.3428 52.0115 45.3428 51.1177C45.3428 50.2239 46.0672 49.4995 46.961 49.4995C47.8548 49.4995 48.5792 50.2239 48.5792 51.1177Z" fill="#F9AB43"/>
<path d="M54.0294 51.1177C54.0294 52.0115 53.305 52.736 52.4112 52.736C51.5174 52.736 50.793 52.0115 50.793 51.1177C50.793 50.2239 51.5174 49.4995 52.4112 49.4995C53.305 49.4995 54.0294 50.2239 54.0294 51.1177Z" fill="#6E7FDD"/>
<path d="M145.283 85.5329C145.283 89.9067 141.524 93.4853 136.93 93.4853H66.307C61.7126 93.4853 57.9541 89.9067 57.9541 85.5329C57.9541 81.1591 61.7131 77.5806 66.307 77.5806H136.93C141.524 77.5806 145.283 81.1591 145.283 85.5329Z" fill="#E2E6FF"/>
<path d="M75.4241 89.2819L72.5259 86.5852C72.9633 85.9661 73.1891 85.2263 73.1614 84.4555C73.1279 83.5249 72.7341 82.6631 72.0523 82.0286C71.3704 81.3942 70.4828 81.0635 69.5522 81.097C68.6215 81.1305 67.7598 81.5243 67.1258 82.2062C66.4913 82.888 66.1602 83.7761 66.1937 84.7062C66.2272 85.6369 66.621 86.4986 67.3028 87.1331C67.9847 87.7676 68.8723 88.0982 69.8029 88.0647C70.5733 88.0369 71.2948 87.7589 71.881 87.2781L74.7791 89.9748L75.4241 89.2819ZM67.9478 86.4402C67.4512 85.978 67.1646 85.3503 67.1402 84.6727C67.1158 83.9947 67.3569 83.3483 67.8191 82.8516C68.2809 82.355 68.9091 82.0684 69.5866 82.044C70.2646 82.0196 70.9111 82.2607 71.4077 82.7224C71.9044 83.1847 72.191 83.8124 72.2154 84.49C72.2398 85.168 71.9987 85.8144 71.5364 86.3111C71.0742 86.8077 70.4465 87.0943 69.7689 87.1187C69.0909 87.1436 68.444 86.9025 67.9478 86.4402Z" fill="#6E7FDD"/>
<path d="M87.9896 86.2174C88.4422 86.2174 88.8092 85.8504 88.8092 85.3978C88.8092 84.9451 88.4422 84.5781 87.9896 84.5781C87.5369 84.5781 87.1699 84.9451 87.1699 85.3978C87.1699 85.8504 87.5369 86.2174 87.9896 86.2174Z" fill="#B6C3F2"/>
<path d="M97.5599 86.2174C98.0125 86.2174 98.3795 85.8504 98.3795 85.3978C98.3795 84.9451 98.0125 84.5781 97.5599 84.5781C97.1072 84.5781 96.7402 84.9451 96.7402 85.3978C96.7402 85.8504 97.1072 86.2174 97.5599 86.2174Z" fill="#B6C3F2"/>
<path d="M107.129 86.2174C107.582 86.2174 107.949 85.8504 107.949 85.3978C107.949 84.9451 107.582 84.5781 107.129 84.5781C106.677 84.5781 106.31 84.9451 106.31 85.3978C106.31 85.8504 106.677 86.2174 107.129 86.2174Z" fill="#B6C3F2"/>
<path d="M116.699 86.2174C117.151 86.2174 117.518 85.8504 117.518 85.3978C117.518 84.9451 117.151 84.5781 116.699 84.5781C116.246 84.5781 115.879 84.9451 115.879 85.3978C115.879 85.8504 116.246 86.2174 116.699 86.2174Z" fill="#B6C3F2"/>
<path d="M192.158 18.771H128.976V88.2844H192.158V18.771Z" fill="#F5F9FF"/>
<path d="M192.158 18.771H128.976V26.6071H192.158V18.771Z" fill="#E2E6FF"/>
<path d="M135.814 22.869C135.814 23.8595 135.011 24.6624 134.021 24.6624C133.03 24.6624 132.228 23.8595 132.228 22.869C132.228 21.8786 133.03 21.0757 134.021 21.0757C135.011 21.0757 135.814 21.8791 135.814 22.869Z" fill="#EB725F"/>
<path d="M141.852 22.869C141.852 23.8595 141.049 24.6624 140.059 24.6624C139.069 24.6624 138.266 23.8595 138.266 22.869C138.266 21.8786 139.069 21.0757 140.059 21.0757C141.049 21.0757 141.852 21.8791 141.852 22.869Z" fill="#F9AB43"/>
<path d="M147.89 22.869C147.89 23.8595 147.088 24.6624 146.097 24.6624C145.107 24.6624 144.304 23.8595 144.304 22.869C144.304 21.8786 145.107 21.0757 146.097 21.0757C147.088 21.0757 147.89 21.8791 147.89 22.869Z" fill="#6E7FDD"/>
<path d="M173.607 62.347L170.997 64.9565L194.385 88.3449L196.995 85.7354L173.607 62.347Z" fill="#EB725F"/>
<path d="M174.417 60.8567L169.507 65.7666L176.351 72.6104L181.261 67.7005L174.417 60.8567Z" fill="#6E7FDD"/>
<g opacity="0.2">
<path d="M172.303 63.6512C166.185 69.7686 156.231 69.7686 150.113 63.6512C143.996 57.5338 143.996 47.5795 150.113 41.4621C156.231 35.3447 166.185 35.3447 172.303 41.4621C178.42 47.5795 178.42 57.5338 172.303 63.6512Z" fill="#F5F9FF"/>
</g>
<path d="M173.792 65.1398C166.854 72.0782 155.563 72.0787 148.625 65.1398C141.686 58.2008 141.686 46.9106 148.625 39.9721C155.563 33.0336 166.854 33.0332 173.792 39.9721C180.731 46.9106 180.731 58.2008 173.792 65.1398ZM151.234 42.5813C145.734 48.0814 145.734 57.03 151.234 62.5296C156.734 68.0293 165.683 68.0298 171.182 62.5296C176.682 57.0295 176.682 48.0809 171.182 42.5813C165.683 37.0816 156.734 37.0811 151.234 42.5813Z" fill="#EB725F"/>
<path d="M169.012 47.0511L166.714 44.7529L161.208 50.2588L155.702 44.7529L153.404 47.0511L158.91 52.557L153.404 58.0624L155.702 60.361L161.208 54.8551L166.714 60.361L169.012 58.0624L163.506 52.557L169.012 47.0511Z" fill="#F9AB43"/>
<path d="M60.5226 99.083H31.9414V150.716H76.0263V113.935L60.5226 99.083Z" fill="#EB725F"/>
<path d="M60.5225 99.083L76.0262 113.935H60.5225V99.083Z" fill="#F4AEA6"/>
<path d="M49.2809 118.925C49.2809 120.475 48.3804 121.731 47.2698 121.731C46.1593 121.731 45.2588 120.475 45.2588 118.925C45.2588 117.375 46.1593 116.119 47.2698 116.119C48.3804 116.119 49.2809 117.375 49.2809 118.925Z" fill="white"/>
<path d="M60.64 121.731C61.7506 121.731 62.651 120.475 62.651 118.925C62.651 117.375 61.7506 116.119 60.64 116.119C59.5293 116.119 58.6289 117.375 58.6289 118.925C58.6289 120.475 59.5293 121.731 60.64 121.731Z" fill="white"/>
<path d="M48.3618 127.35C49.1987 126.433 50.3624 125.713 51.5208 125.295C54.452 124.238 57.2855 125.342 59.5181 127.35C60.1143 127.886 61 127.005 60.4009 126.467C57.9257 124.242 54.7151 122.935 51.4227 124.011C49.9786 124.483 48.5126 125.334 47.4786 126.467C46.9383 127.059 47.8188 127.945 48.3618 127.35Z" fill="white"/>
<path d="M45.464 12.0225H13.3148C11.3971 12.0225 9.82812 13.5914 9.82812 15.5092V38.0605C9.82812 39.9782 11.3971 41.5472 13.3148 41.5472H24.6108L29.3894 47.3679L34.168 41.5472H45.464C47.3818 41.5472 48.9507 39.9782 48.9507 38.0605V15.5092C48.9507 13.5914 47.3818 12.0225 45.464 12.0225Z" fill="#F9AB43"/>
<path d="M29.3904 16.2124C23.5199 16.2124 18.7441 20.9881 18.7441 26.8586C18.7441 32.7291 23.5199 37.5048 29.3904 37.5048C35.2609 37.5048 40.0366 32.7286 40.0366 26.8586C40.0366 20.9881 35.2609 16.2124 29.3904 16.2124ZM29.3904 18.2196C31.411 18.2196 33.2704 18.9192 34.7436 20.0857L22.6179 32.2119C21.4514 30.7386 20.7518 28.8793 20.7518 26.8586C20.7514 22.0953 24.6271 18.2196 29.3904 18.2196ZM29.3904 35.4971C27.3697 35.4971 25.5104 34.7981 24.0371 33.6311L36.1628 21.5054C37.3298 22.9781 38.0289 24.838 38.0289 26.8586C38.0293 31.6219 34.1541 35.4971 29.3904 35.4971Z" fill="white"/>
<path d="M165.462 102.697L138.797 102.521L138.479 150.691L179.607 150.962L179.834 116.648L165.462 102.697Z" fill="#D0DBF7"/>
<path d="M165.462 102.697L179.835 116.648L165.371 116.552L165.462 102.697Z" fill="#E3EBFC"/>
<path d="M167.925 120.653L165.386 118.08L159.22 124.164L153.135 117.999L150.561 120.539L156.646 126.704L150.48 132.789L153.02 135.362L159.186 129.278L165.271 135.443L167.845 132.903L161.76 126.738L167.925 120.653Z" fill="#EEF4FF"/>
<path d="M31.0203 65.5413L15.063 57.543L0.613281 86.371L25.2273 98.7082L35.52 78.1722L31.0203 65.5413Z" fill="#D0DBF7"/>
<path d="M31.0203 65.5415L35.52 78.1725L26.8643 73.8336L31.0203 65.5415Z" fill="#E3EBFC"/>
<path d="M27.1846 77.052L26.4214 74.7553L20.9184 76.5836L19.0896 71.0801L16.7929 71.8433L18.6212 77.3463L13.1182 79.1746L13.8813 81.4717L19.3844 79.6435L21.2131 85.1465L23.5103 84.3833L21.6816 78.8803L27.1846 77.052Z" fill="#EEF4FF"/>
<path d="M90.7121 12.0288L77.9404 16.1849L85.4483 39.2578L105.148 32.8476L99.7999 16.4112L90.7121 12.0288Z" fill="#D0DBF7"/>
<path d="M90.7129 12.0288L99.8007 16.4112L92.8728 18.6654L90.7129 12.0288Z" fill="#E3EBFC"/>
<path d="M94.7457 20.2194L93.1227 19.3936L91.1437 23.2822L87.2546 21.3027L86.4287 22.9257L90.3173 24.9052L88.3378 28.7938L89.9609 29.6197L91.9403 25.731L95.829 27.7105L96.6553 26.087L92.7667 24.108L94.7457 20.2194Z" fill="#EEF4FF"/>
<path d="M130.141 9.81511L129.022 9.81128C128.789 8.82274 128.403 7.89544 127.889 7.0514L128.684 6.26238C129.303 5.64705 129.307 4.63602 128.691 4.01639L127.769 3.08765C127.153 2.46802 126.143 2.46419 125.523 3.08L124.728 3.86902C123.888 3.34986 122.963 2.95703 121.977 2.71683L121.981 1.59814C121.983 0.724432 121.271 0.00718717 120.398 0.00431627L119.089 8.65171e-06C118.215 -0.00286224 117.498 0.709122 117.495 1.58283L117.491 2.70152C116.503 2.9355 115.576 3.32115 114.732 3.83504L113.943 3.04028C113.327 2.42017 112.316 2.41682 111.697 3.03263L110.768 3.95466C110.148 4.57047 110.144 5.58102 110.76 6.20066L111.549 6.99542C111.03 7.83611 110.637 8.76053 110.397 9.74764L109.278 9.74382C108.404 9.74095 107.687 10.4529 107.684 11.3266L107.68 12.6353C107.677 13.509 108.389 14.2262 109.263 14.2291L110.381 14.2329C110.615 15.2215 111.001 16.1488 111.515 16.9928L110.72 17.7818C110.1 18.3972 110.096 19.4082 110.712 20.0278L111.634 20.9566C112.25 21.5762 113.261 21.58 113.881 20.9642L114.675 20.1752C115.516 20.6948 116.44 21.0872 117.427 21.3279L117.423 22.4466C117.421 23.3203 118.133 24.0375 119.006 24.0404L120.315 24.0447C121.189 24.0476 121.905 23.3356 121.909 22.4619L121.913 21.3432C122.901 21.1097 123.828 20.7235 124.672 20.2096L125.462 21.0044C126.077 21.624 127.088 21.6279 127.708 21.0121L128.636 20.09C129.256 19.4747 129.26 18.4637 128.644 17.844L127.855 17.0498C128.375 16.2091 128.767 15.2846 129.008 14.2975L130.126 14.3014C130.999 14.3042 131.717 13.5922 131.72 12.7185L131.724 11.4099C131.726 10.5357 131.014 9.81846 130.141 9.81511ZM119.686 16.4536C117.238 16.445 115.261 14.454 115.269 12.0066C115.278 9.55912 117.269 7.58204 119.716 7.59017C122.164 7.59878 124.141 9.58927 124.133 12.0372C124.124 14.4846 122.133 16.4617 119.686 16.4536Z" fill="#EB725F"/>
<path d="M119.724 5.69926C116.232 5.68729 113.391 8.50842 113.379 11.9999C113.367 15.4919 116.188 18.3326 119.68 18.3446C123.172 18.3565 126.012 15.5354 126.024 12.0434C126.036 8.55197 123.216 5.71122 119.724 5.69926ZM119.688 15.9483C117.52 15.9407 115.768 14.177 115.775 12.0085C115.783 9.84004 117.547 8.08832 119.715 8.0955C121.883 8.10315 123.635 9.86683 123.628 12.0358C123.62 14.2038 121.857 15.956 119.688 15.9483Z" fill="#F9AB43"/>
</svg>
